<svg width="17" height="23" viewBox="0 0 17 23" fill="none" xmlns="http://www.w3.org/2000/svg">
    <path d="M0 23V0H9.05607C10.5601 0 11.9159 0.342644 13.1234 1.02793C14.3308 1.69181 15.2735 2.6555 15.9514 3.919C16.6505 5.16108 17 6.60661 17 8.25559C17 9.96881 16.6293 11.4786 15.8879 12.7849C15.1464 14.0913 14.1402 15.1085 12.8692 15.8366C11.6193 16.5433 10.253 16.8966 8.7701 16.8966C8.07103 16.8966 7.42492 16.8324 6.83178 16.7039C6.25981 16.5754 5.7514 16.4041 5.30654 16.1899C4.86168 15.9544 4.4486 15.676 4.06729 15.3547V20.912L0 23ZM8.42056 12.8492C9.26791 12.8492 10.0093 12.6671 10.6449 12.3031C11.3016 11.939 11.7994 11.425 12.1383 10.7612C12.4984 10.0759 12.6785 9.30494 12.6785 8.44833C12.6785 7.5703 12.4984 6.79935 12.1383 6.13548C11.7782 5.45019 11.2804 4.92552 10.6449 4.56146C10.0305 4.1974 9.31028 4.01537 8.48412 4.01537H4.28972V8.48045C4.28972 9.33706 4.45919 10.0973 4.79813 10.7612C5.15826 11.425 5.65607 11.939 6.29158 12.3031C6.9271 12.6671 7.63676 12.8492 8.42056 12.8492Z" fill="white"/>
</svg>
